<svg width="24" height="24" viewBox="0 0 24 24" fill="none" xmlns="http://www.w3.org/2000/svg">
<g clip-path="url(#clip0_514_6080)">
<path d="M12.0333 23.2672C12.022 23.2785 12.0109 23.2896 12 23.3004C11.9891 23.2896 11.978 23.2785 11.9667 23.2672C11.724 23.0247 11.3763 22.6703 10.9587 22.2244C10.1228 21.3321 9.00934 20.0767 7.89712 18.6228C6.78377 17.1675 5.67912 15.523 4.85462 13.8524C4.02741 12.1763 3.5 10.5095 3.5 9C3.5 6.74566 4.39553 4.58365 5.98959 2.98959C7.58365 1.39553 9.74566 0.5 12 0.5C14.2543 0.5 16.4163 1.39553 18.0104 2.98959C19.6045 4.58365 20.5 6.74566 20.5 9C20.5 10.5095 19.9726 12.1763 19.1454 13.8524C18.3209 15.523 17.2162 17.1675 16.1029 18.6228C14.9907 20.0767 13.8772 21.3321 13.0413 22.2244C12.6237 22.6703 12.276 23.0247 12.0333 23.2672ZM12 14C13.3261 14 14.5979 13.4732 15.5355 12.5355C16.4732 11.5979 17 10.3261 17 9C17 7.67392 16.4732 6.40215 15.5355 5.46447C14.5979 4.52678 13.3261 4 12 4C10.6739 4 9.40215 4.52678 8.46447 5.46447C7.52678 6.40215 7 7.67392 7 9C7 10.3261 7.52678 11.5979 8.46447 12.5355C9.40215 13.4732 10.6739 14 12 14Z" fill="#5B5B5B" stroke="#5B5B5B"/>
</g>
<defs>
<clipPath id="clip0_514_6080">
<rect width="24" height="24" fill="white"/>
</clipPath>
</defs>
</svg>
