<svg width="68" height="76" viewBox="0 0 68 76" fill="none" xmlns="http://www.w3.org/2000/svg">
<line x1="65.6907" y1="73.915" x2="31.6907" y2="32.915" stroke="#EDEDED" stroke-width="6"/>
<circle cx="32" cy="32" r="32" fill="#EDEDED"/>
<path d="M42.6875 37.719C42.8125 37.844 43.0625 38.1252 43.4375 38.5627C43.875 38.9377 44.1562 39.1877 44.2812 39.3127C44.4062 39.4377 44.6562 39.719 45.0312 40.1565C45.4688 40.594 45.7188 40.9065 45.7812 41.094C45.9062 41.219 46.1562 41.5002 46.5312 41.9377C46.9062 42.3752 47.0938 42.6877 47.0938 42.8752C47.1562 43.0627 47.3125 43.4065 47.5625 43.9065C47.875 44.4065 47.9688 44.7815 47.8438 45.0315C47.7812 45.219 47.8125 45.594 47.9375 46.1565C48.125 46.6565 48.125 47.0315 47.9375 47.2815C47.25 49.9065 45.6875 51.469 43.25 51.969C42.8125 52.0315 41.2812 51.9065 38.6562 51.594C36.0938 51.2815 33.9375 51.1252 32.1875 51.1252H31.8125C30.0625 51.1252 27.875 51.2815 25.25 51.594C22.6875 51.9065 21.1875 52.0315 20.75 51.969C18.3125 51.469 16.75 49.9065 16.0625 47.2815C15.875 46.0315 16.0938 44.7502 16.7188 43.4377C17.3438 42.1252 17.9062 41.1877 18.4062 40.6252C18.9688 40.0627 19.9375 39.094 21.3125 37.719C21.9375 37.0315 22.75 36.0627 23.75 34.8127C24.8125 33.5627 25.6562 32.594 26.2812 31.9065C27.4062 30.5315 28.5625 29.6565 29.75 29.2815C30 29.1565 30.2188 29.094 30.4062 29.094C30.7812 29.0315 31.3125 29.0002 32 29.0002C32.75 29.0002 33.2812 29.0315 33.5938 29.094C33.7812 29.094 34 29.1565 34.25 29.2815C35.4375 29.6565 36.5938 30.5315 37.7188 31.9065C38.2812 32.594 39.0938 33.5627 40.1562 34.8127C41.2188 36.0627 42.0625 37.0315 42.6875 37.719ZM43.4375 30.594C42.5 29.594 42.0312 28.4065 42.0312 27.0315C42.0312 25.6565 42.5 24.469 43.4375 23.469C44.4375 22.469 45.625 21.969 47 21.969C48.375 21.969 49.5312 22.469 50.4688 23.469C51.4688 24.469 51.9688 25.6565 51.9688 27.0315C51.9688 28.4065 51.4688 29.594 50.4688 30.594C49.5312 31.5315 48.375 32.0002 47 32.0002C45.625 32.0002 44.4375 31.5315 43.4375 30.594ZM34.4375 22.5315C33.5 21.5315 33.0312 20.344 33.0312 18.969C33.0312 17.594 33.5 16.4377 34.4375 15.5002C35.4375 14.5002 36.625 14.0002 38 14.0002C39.375 14.0002 40.5312 14.5002 41.4688 15.5002C42.4688 16.4377 42.9688 17.594 42.9688 18.969C42.9688 20.344 42.4688 21.5315 41.4688 22.5315C40.5312 23.5315 39.375 24.0315 38 24.0315C36.625 24.0315 35.4375 23.5315 34.4375 22.5315ZM22.4375 22.5315C21.5 21.5315 21.0312 20.344 21.0312 18.969C21.0312 17.594 21.5 16.4377 22.4375 15.5002C23.4375 14.5002 24.625 14.0002 26 14.0002C27.375 14.0002 28.5312 14.5002 29.4688 15.5002C30.4688 16.4377 30.9688 17.594 30.9688 18.969C30.9688 20.344 30.4688 21.5315 29.4688 22.5315C28.5312 23.5315 27.375 24.0315 26 24.0315C24.625 24.0315 23.4375 23.5315 22.4375 22.5315ZM13.4375 30.594C12.5 29.594 12.0312 28.4065 12.0312 27.0315C12.0312 25.6565 12.5 24.469 13.4375 23.469C14.4375 22.469 15.625 21.969 17 21.969C18.375 21.969 19.5312 22.469 20.4688 23.469C21.4688 24.469 21.9688 25.6565 21.9688 27.0315C21.9688 28.4065 21.4688 29.594 20.4688 30.594C19.5312 31.5315 18.375 32.0002 17 32.0002C15.625 32.0002 14.4375 31.5315 13.4375 30.594Z" fill="#D9D9D9"/>
</svg>
