<svg width="100" height="100" viewBox="0 0 100 100" fill="none" xmlns="http://www.w3.org/2000/svg">
<circle cx="50" cy="50" r="50" fill="#F5EDD8"/>
<path d="M38.125 61.875C41.4583 65.1042 45.4167 66.7187 50 66.7187C54.5833 66.7187 58.4896 65.1042 61.7187 61.875C65.0521 58.5417 66.7187 54.5833 66.7187 50C66.7187 45.4167 65.0521 41.5104 61.7187 38.2812C58.4896 34.9479 54.5833 33.2812 50 33.2812C45.4167 33.2812 41.4583 34.9479 38.125 38.2812C34.8958 41.5104 33.2812 45.4167 33.2812 50C33.2812 54.5833 34.8958 58.5417 38.125 61.875ZM40 16.7188H60L66.0937 23.2812H76.7187C78.4896 23.2812 80 23.9583 81.25 25.3125C82.6042 26.6667 83.2812 28.2292 83.2812 30V70C83.2812 71.7708 82.6042 73.3333 81.25 74.6875C80 76.0417 78.4896 76.7187 76.7187 76.7187H23.2812C21.5104 76.7187 19.9479 76.0417 18.5937 74.6875C17.3437 73.3333 16.7188 71.7708 16.7188 70V30C16.7188 28.2292 17.3437 26.6667 18.5937 25.3125C19.9479 23.9583 21.5104 23.2812 23.2812 23.2812H33.9062L40 16.7188ZM42.5 57.5C40.4167 55.4167 39.375 52.9167 39.375 50C39.375 47.0833 40.4167 44.5833 42.5 42.5C44.5833 40.4167 47.0833 39.375 50 39.375C52.9167 39.375 55.4167 40.4167 57.5 42.5C59.5833 44.5833 60.625 47.0833 60.625 50C60.625 52.9167 59.5833 55.4167 57.5 57.5C55.4167 59.5833 52.9167 60.625 50 60.625C47.0833 60.625 44.5833 59.5833 42.5 57.5Z" fill="#B95C31"/>
</svg>
