<svg width="100" height="100" viewBox="0 0 100 100" fill="none" xmlns="http://www.w3.org/2000/svg">
<circle cx="50" cy="50" r="50" fill="#A57865"/>
<path d="M83.1551 45.7517C86.3062 47.7074 86.3062 52.2926 83.1551 54.2483L37.6367 82.4994C34.3059 84.5666 30 82.1712 30 78.2511V21.7489C30 17.8287 34.3059 15.4334 37.6367 17.5006L83.1551 45.7517Z" fill="#F5EDD8"/>
<path d="M58.0282 53.733C58.1221 53.8318 58.3099 54.0539 58.5916 54.3994C58.9202 54.6956 59.1315 54.893 59.2254 54.9918C59.3193 55.0905 59.507 55.3126 59.7887 55.6582C60.1174 56.0037 60.3052 56.2505 60.3521 56.3986C60.446 56.4973 60.6338 56.7195 60.9155 57.065C61.1972 57.4105 61.338 57.6573 61.338 57.8054C61.385 57.9535 61.5023 58.225 61.6901 58.6199C61.9249 59.0148 61.9953 59.311 61.9014 59.5084C61.8545 59.6565 61.8779 59.9527 61.9718 60.397C62.1127 60.7919 62.1127 61.088 61.9718 61.2855C61.4554 63.3587 60.2817 64.5928 58.4507 64.9877C58.1221 65.037 56.9718 64.9383 55 64.6915C53.0751 64.4447 51.4554 64.3213 50.1408 64.3213H49.8592C48.5446 64.3213 46.9014 64.4447 44.9296 64.6915C43.0047 64.9383 41.8779 65.037 41.5493 64.9877C39.7183 64.5928 38.5446 63.3587 38.0282 61.2855C37.8873 60.2982 38.0516 59.2863 38.5211 58.2497C38.9906 57.2131 39.4131 56.4726 39.7887 56.0284C40.2113 55.5841 40.939 54.819 41.9718 53.733C42.4413 53.19 43.0516 52.4249 43.8028 51.4377C44.6009 50.4504 45.2347 49.6853 45.7042 49.1423C46.5493 48.0564 47.4178 47.3653 48.3099 47.0691C48.4977 46.9704 48.662 46.921 48.8028 46.921C49.0845 46.8717 49.4836 46.847 50 46.847C50.5634 46.847 50.9624 46.8717 51.1972 46.921C51.338 46.921 51.5023 46.9704 51.6901 47.0691C52.5822 47.3653 53.4507 48.0564 54.2958 49.1423C54.7183 49.6853 55.3286 50.4504 56.1268 51.4377C56.9249 52.4249 57.5587 53.19 58.0282 53.733ZM58.5916 48.1057C57.8873 47.3159 57.5352 46.378 57.5352 45.2921C57.5352 44.2061 57.8873 43.2682 58.5916 42.4784C59.3427 41.6886 60.2347 41.2937 61.2676 41.2937C62.3005 41.2937 63.169 41.6886 63.8732 42.4784C64.6244 43.2682 65 44.2061 65 45.2921C65 46.378 64.6244 47.3159 63.8732 48.1057C63.169 48.8462 62.3005 49.2164 61.2676 49.2164C60.2347 49.2164 59.3427 48.8462 58.5916 48.1057ZM51.831 41.738C51.1268 40.9482 50.7746 40.0103 50.7746 38.9243C50.7746 37.8383 51.1268 36.9251 51.831 36.1847C52.5822 35.3949 53.4742 35 54.507 35C55.5399 35 56.4085 35.3949 57.1127 36.1847C57.8638 36.9251 58.2394 37.8383 58.2394 38.9243C58.2394 40.0103 57.8638 40.9482 57.1127 41.738C56.4085 42.5278 55.5399 42.9227 54.507 42.9227C53.4742 42.9227 52.5822 42.5278 51.831 41.738ZM42.8169 41.738C42.1127 40.9482 41.7606 40.0103 41.7606 38.9243C41.7606 37.8383 42.1127 36.9251 42.8169 36.1847C43.5681 35.3949 44.4601 35 45.493 35C46.5258 35 47.3944 35.3949 48.0986 36.1847C48.8498 36.9251 49.2254 37.8383 49.2254 38.9243C49.2254 40.0103 48.8498 40.9482 48.0986 41.738C47.3944 42.5278 46.5258 42.9227 45.493 42.9227C44.4601 42.9227 43.5681 42.5278 42.8169 41.738ZM36.0563 48.1057C35.3521 47.3159 35 46.378 35 45.2921C35 44.2061 35.3521 43.2682 36.0563 42.4784C36.8075 41.6886 37.6995 41.2937 38.7324 41.2937C39.7653 41.2937 40.6338 41.6886 41.338 42.4784C42.0892 43.2682 42.4648 44.2061 42.4648 45.2921C42.4648 46.378 42.0892 47.3159 41.338 48.1057C40.6338 48.8462 39.7653 49.2164 38.7324 49.2164C37.6995 49.2164 36.8075 48.8462 36.0563 48.1057Z" fill="#B95C31"/>
</svg>
