<svg width="100" height="100" viewBox="0 0 100 100" fill="none" xmlns="http://www.w3.org/2000/svg">
<path d="M44.5312 67.9687C42.0573 65.3646 40.8203 62.1745 40.8203 58.3984C40.8203 54.6224 42.1224 51.4323 44.7266 48.8281C47.3307 46.224 50.4557 44.9219 54.1016 44.9219C57.8776 44.9219 61.0677 46.224 63.6719 48.8281C66.276 51.4323 67.5781 54.6224 67.5781 58.3984C67.5781 62.0443 66.276 65.1693 63.6719 67.7734C61.0677 70.3776 57.8776 71.6797 54.1016 71.6797C50.3255 71.6797 47.1354 70.4427 44.5312 67.9687ZM39.4531 73.0469C43.4896 77.0833 48.3724 79.1016 54.1016 79.1016C59.8307 79.1016 64.7135 77.0833 68.75 73.0469C72.9167 69.0104 75 64.1276 75 58.3984C75 52.6693 72.9167 47.7865 68.75 43.75C64.7135 39.5833 59.8307 37.5 54.1016 37.5C48.3724 37.5 43.4896 39.5833 39.4531 43.75C35.4167 47.7865 33.3984 52.6693 33.3984 58.3984C33.3984 64.1276 35.4167 69.0104 39.4531 73.0469ZM25 41.6016V29.1016H37.5V16.6016H66.6016L74.2187 25H87.5C89.7135 25 91.6667 25.8464 93.3594 27.5391C95.0521 29.2318 95.8984 31.1849 95.8984 33.3984V83.3984C95.8984 85.612 95.0521 87.5651 93.3594 89.2578C91.6667 90.8203 89.7135 91.6016 87.5 91.6016H20.8984C18.6849 91.6016 16.7318 90.8203 15.0391 89.2578C13.3464 87.5651 12.5 85.612 12.5 83.3984V41.6016H25ZM12.5 16.6016V4.10156H20.8984V16.6016H33.3984V25H20.8984V37.5H12.5V25H0V16.6016H12.5Z" fill="#999999"/>
</svg>
