<svg width="24" height="24" viewBox="0 0 24 24" fill="none" xmlns="http://www.w3.org/2000/svg">
<g clip-path="url(#clip0_514_6072)">
<path fill-rule="evenodd" clip-rule="evenodd" d="M3 23.1667C3 23.1667 1.16667 23.1667 1.16667 21.3333C1.16667 19.5 3 14 12.1667 14C21.3333 14 23.1667 19.5 23.1667 21.3333C23.1667 23.1667 21.3333 23.1667 21.3333 23.1667H3ZM12.1667 12.1667C13.6254 12.1667 15.0243 11.5872 16.0558 10.5558C17.0872 9.5243 17.6667 8.12536 17.6667 6.66667C17.6667 5.20798 17.0872 3.80903 16.0558 2.77758C15.0243 1.74613 13.6254 1.16667 12.1667 1.16667C10.708 1.16667 9.30903 1.74613 8.27758 2.77758C7.24613 3.80903 6.66667 5.20798 6.66667 6.66667C6.66667 8.12536 7.24613 9.5243 8.27758 10.5558C9.30903 11.5872 10.708 12.1667 12.1667 12.1667Z" fill="#5B5B5B"/>
</g>
<defs>
<clipPath id="clip0_514_6072">
<rect width="24" height="24" fill="white"/>
</clipPath>
</defs>
</svg>
