<svg width="62" height="62" viewBox="0 0 62 62" fill="none" xmlns="http://www.w3.org/2000/svg">
<g filter="url(#filter0_d_509_5794)">
<path d="M20.0625 31.6875C24.0208 30.75 27.6667 30.2812 31 30.2812C34.3333 30.2812 37.9792 30.75 41.9375 31.6875C45.8958 32.625 49.4896 34.1875 52.7187 36.375C56.0521 38.5625 57.7187 41.0104 57.7187 43.7187V53.7187H4.28125V43.7187C4.28125 41.0104 5.89583 38.5625 9.125 36.375C12.4583 34.1875 16.1042 32.625 20.0625 31.6875ZM21.625 4.34375C24.2292 1.63542 27.3542 0.28125 31 0.28125C34.6458 0.28125 37.7708 1.63542 40.375 4.34375C42.9792 6.94792 44.2812 10.0729 44.2812 13.7187C44.2812 17.3646 42.9792 20.4896 40.375 23.0937C37.7708 25.6979 34.6458 27 31 27C27.3542 27 24.2292 25.6979 21.625 23.0937C19.0208 20.4896 17.7187 17.3646 17.7187 13.7187C17.7187 10.0729 19.0208 6.94792 21.625 4.34375ZM44.5937 39.3437C40.1146 37.5729 35.5833 36.6875 31 36.6875C26.4167 36.6875 21.8854 37.5729 17.4062 39.3437C12.9271 41.0104 10.6875 42.4687 10.6875 43.7187V47.3125H51.3125V43.7187C51.3125 42.4687 49.0729 41.0104 44.5937 39.3437ZM36 8.71875C34.6458 7.36458 32.9792 6.6875 31 6.6875C29.0208 6.6875 27.3542 7.36458 26 8.71875C24.6458 10.0729 23.9687 11.7396 23.9687 13.7187C23.9687 15.6979 24.6458 17.3646 26 18.7187C27.3542 19.9687 29.0208 20.5937 31 20.5937C32.9792 20.5937 34.6458 19.9687 36 18.7187C37.3542 17.3646 38.0312 15.6979 38.0312 13.7187C38.0312 11.7396 37.3542 10.0729 36 8.71875Z" fill="#CCCCCC"/>
</g>
<defs>
<filter id="filter0_d_509_5794" x="0.28125" y="0.28125" width="61.4375" height="61.4375" filterUnits="userSpaceOnUse" color-interpolation-filters="sRGB">
<feFlood flood-opacity="0" result="BackgroundImageFix"/>
<feColorMatrix in="SourceAlpha" type="matrix" values="0 0 0 0 0 0 0 0 0 0 0 0 0 0 0 0 0 0 127 0" result="hardAlpha"/>
<feOffset dy="4"/>
<feGaussianBlur stdDeviation="2"/>
<feComposite in2="hardAlpha" operator="out"/>
<feColorMatrix type="matrix" values="0 0 0 0 0 0 0 0 0 0 0 0 0 0 0 0 0 0 0.25 0"/>
<feBlend mode="normal" in2="BackgroundImageFix" result="effect1_dropShadow_509_5794"/>
<feBlend mode="normal" in="SourceGraphic" in2="effect1_dropShadow_509_5794" result="shape"/>
</filter>
</defs>
</svg>
