<svg width="60" height="60" viewBox="0 0 60 60" fill="none" xmlns="http://www.w3.org/2000/svg">
<path d="M43.3594 37.1484C43.5156 37.3047 43.8281 37.6562 44.2969 38.2031C44.8438 38.6719 45.1953 38.9844 45.3516 39.1406C45.5078 39.2969 45.8203 39.6484 46.2891 40.1953C46.8359 40.7422 47.1484 41.1328 47.2266 41.3672C47.3828 41.5234 47.6953 41.875 48.1641 42.4219C48.6328 42.9688 48.8672 43.3594 48.8672 43.5938C48.9453 43.8281 49.1406 44.2578 49.4531 44.8828C49.8438 45.5078 49.9609 45.9766 49.8047 46.2891C49.7266 46.5234 49.7656 46.9922 49.9219 47.6953C50.1562 48.3203 50.1562 48.7891 49.9219 49.1016C49.0625 52.3828 47.1094 54.3359 44.0625 54.9609C43.5156 55.0391 41.6016 54.8828 38.3203 54.4922C35.1172 54.1016 32.4219 53.9062 30.2344 53.9062H29.7656C27.5781 53.9062 24.8438 54.1016 21.5625 54.4922C18.3594 54.8828 16.4844 55.0391 15.9375 54.9609C12.8906 54.3359 10.9375 52.3828 10.0781 49.1016C9.84375 47.5391 10.1172 45.9375 10.8984 44.2969C11.6797 42.6562 12.3828 41.4844 13.0078 40.7812C13.7109 40.0781 14.9219 38.8672 16.6406 37.1484C17.4219 36.2891 18.4375 35.0781 19.6875 33.5156C21.0156 31.9531 22.0703 30.7422 22.8516 29.8828C24.2578 28.1641 25.7031 27.0703 27.1875 26.6016C27.5 26.4453 27.7734 26.3672 28.0078 26.3672C28.4766 26.2891 29.1406 26.25 30 26.25C30.9375 26.25 31.6016 26.2891 31.9922 26.3672C32.2266 26.3672 32.5 26.4453 32.8125 26.6016C34.2969 27.0703 35.7422 28.1641 37.1484 29.8828C37.8516 30.7422 38.8672 31.9531 40.1953 33.5156C41.5234 35.0781 42.5781 36.2891 43.3594 37.1484ZM44.2969 28.2422C43.125 26.9922 42.5391 25.5078 42.5391 23.7891C42.5391 22.0703 43.125 20.5859 44.2969 19.3359C45.5469 18.0859 47.0312 17.4609 48.75 17.4609C50.4688 17.4609 51.9141 18.0859 53.0859 19.3359C54.3359 20.5859 54.9609 22.0703 54.9609 23.7891C54.9609 25.5078 54.3359 26.9922 53.0859 28.2422C51.9141 29.4141 50.4688 30 48.75 30C47.0312 30 45.5469 29.4141 44.2969 28.2422ZM33.0469 18.1641C31.875 16.9141 31.2891 15.4297 31.2891 13.7109C31.2891 11.9922 31.875 10.5469 33.0469 9.375C34.2969 8.125 35.7812 7.5 37.5 7.5C39.2188 7.5 40.6641 8.125 41.8359 9.375C43.0859 10.5469 43.7109 11.9922 43.7109 13.7109C43.7109 15.4297 43.0859 16.9141 41.8359 18.1641C40.6641 19.4141 39.2188 20.0391 37.5 20.0391C35.7812 20.0391 34.2969 19.4141 33.0469 18.1641ZM18.0469 18.1641C16.875 16.9141 16.2891 15.4297 16.2891 13.7109C16.2891 11.9922 16.875 10.5469 18.0469 9.375C19.2969 8.125 20.7812 7.5 22.5 7.5C24.2188 7.5 25.6641 8.125 26.8359 9.375C28.0859 10.5469 28.7109 11.9922 28.7109 13.7109C28.7109 15.4297 28.0859 16.9141 26.8359 18.1641C25.6641 19.4141 24.2188 20.0391 22.5 20.0391C20.7812 20.0391 19.2969 19.4141 18.0469 18.1641ZM6.79688 28.2422C5.625 26.9922 5.03906 25.5078 5.03906 23.7891C5.03906 22.0703 5.625 20.5859 6.79688 19.3359C8.04688 18.0859 9.53125 17.4609 11.25 17.4609C12.9688 17.4609 14.4141 18.0859 15.5859 19.3359C16.8359 20.5859 17.4609 22.0703 17.4609 23.7891C17.4609 25.5078 16.8359 26.9922 15.5859 28.2422C14.4141 29.4141 12.9688 30 11.25 30C9.53125 30 8.04688 29.4141 6.79688 28.2422Z" fill="#B95C31"/>
</svg>
